<?xml version="1.0" encoding="utf-8"?>
<!-- Generator: Adobe Illustrator 19.0.0, SVG Export Plug-In . SVG Version: 6.00 Build 0)  -->
<svg version="1.1" id="Layer_1" xmlns="http://www.w3.org/2000/svg" xmlns:xlink="http://www.w3.org/1999/xlink" x="0px" y="0px"
	 viewBox="-38.3 379.6 684.8 32" style="enable-background:new -38.3 379.6 684.8 32;" xml:space="preserve">
<style type="text/css">
	.st0{fill:#A62131;}
</style>
<g id="XMLID_2_">
	<path id="XMLID_3_" class="st0" d="M-30.3,395.6c-0.8,0-1.6,0-1.6,0s0,0.8,0,1.6v6.4c0,1.6,0,2.4,0,3.2c0,0.8,0,0.8,0,1.6l0.8,0.8
		c0,0,0.8,0,1.6,0h1.6c0,0,0,0,0,0.8v0.8c-0.8,0-2.4,0-3.2,0c-0.8,0-1.6,0-2.4,0c-0.8,0-1.6,0-3.2,0c-0.8,0-1.6,0-1.6,0s0,0,0-0.8
		c0,0,0,0,0-0.8h0.8c0.8,0,0.8,0,1.6-0.8c0.8-0.8,0.8-0.8,0.8-0.8s0-0.8,0-1.6c0-0.8,0-1.6,0-3.2v-16c0-1.6,0-2.4,0-3.2s0-0.8,0-1.6
		l-0.8-0.8c0,0-0.8,0-1.6,0h-0.8c0,0,0,0,0-0.8v-0.8c0,0,0.8,0,2.4,0c1.6,0,2.4,0,3.2,0c0.8,0,1.6,0,2.4,0c0.8,0,1.6,0,2.4,0
		c0,0,0,0,0,0.8c0,0,0,0,0,0.8h-0.8c-0.8,0-0.8,0-1.6,0l-0.8,0.8c0,0,0,0.8,0,1.6s0,1.6,0,3.2v4.8c0,0.8,0,0.8,0,1.6
		c0,0.8,0.8,0,1.6,0h12.8c0.8,0,1.6,0,1.6,0s0-0.8,0-1.6v-4.8c0-1.6,0-2.4,0-3.2s0-0.8,0-1.6l-0.8-0.8c0,0-0.8,0-1.6,0h-0.8
		c0,0,0,0,0-0.8v-0.8c0.8,0,1.6,0,2.4,0c0.8,0,1.6,0,2.4,0c0.8,0,1.6,0,2.4,0c0.8,0,1.6,0,2.4,0c0,0,0,0,0,0.8c0,0,0,0,0,0.8h-0.8
		c-0.8,0-0.8,0-1.6,0l-0.8,0.8c0,0,0,0.8,0,1.6s0,1.6,0,3.2v16c0,1.6,0,2.4,0,3.2c0,0.8,0,0.8,0,1.6l0.8,0.8c0,0,0.8,0,1.6,0h0.8
		c0,0,0,0,0,0.8v0.8c-0.8,0-1.6,0-3.2,0c-0.8,0-1.6,0-2.4,0c-0.8,0-1.6,0-2.4,0c-0.8,0-1.6,0-2.4,0c0,0,0,0,0-0.8c0,0,0,0,0-0.8h0.8
		c0.8,0,0.8,0,1.6,0c0,0,0.8,0,0.8-0.8c0,0,0-0.8,0-1.6c0-0.8,0-1.6,0-2.4v-0.8v-6.4c0-0.8,0-0.8,0-1.6c0-0.8-0.8,0-1.6,0h-12.8
		V395.6z"/>
	<path id="XMLID_5_" class="st0" d="M12.1,402.8C12.1,402.8,11.3,402,12.1,402.8c-0.8-0.8-0.8-0.8-1.6-0.8H5.7H4.9c0,0,0,0,0,0.8
		L4.1,406c-0.8,1.6-0.8,2.4-0.8,2.4s0,0,0,0.8c0,0,0,0,0.8,0h0.8l0,0c0,0,0,0,0,0.8c-0.8,0-0.8,0-2.4,0H1.7c-0.8,0-1.6,0-2.4,0h-0.8
		c0,0,0,0,0-0.8l0,0h0.8c0.8,0,0.8,0,0.8-0.8l0.8-0.8c0,0,0-0.8,0.8-1.6c0.8-1.6,1.6-4,2.4-5.6l3.2-8c0-0.8,0.8-1.6,0.8-1.6l0,0l0,0
		c0,0,0.8,0,0.8-0.8c0-0.8,0.8-0.8,0.8-0.8h0.8c0,0.8,0.8,2.4,1.6,4v0.8l4,12.8c0,0.8,0.8,1.6,0.8,1.6s0,0.8,0.8,0.8s0,0,0.8,0.8
		h0.8h0.8l0,0c0,0,0,0,0,0.8c-0.8,0-1.6,0-1.6,0c-0.8,0-1.6,0-1.6,0c-0.8,0-1.6,0-3.2,0c0,0,0,0-0.8,0c0,0,0,0,0-0.8l0,0h0.8
		c0.8,0,0.8,0,0.8-0.8c0,0,0-0.8-0.8-1.6L12.1,402.8z M5.7,400.4L5.7,400.4C5.7,401.2,5.7,401.2,5.7,400.4l4.8,0.8
		c0.8,0,0.8,0,0.8,0s0,0,0-0.8l-1.6-4.8c0-0.8,0-0.8-0.8-1.6v-0.8l0,0c0,0,0,0,0,0.8c0,0,0,0.8-0.8,0.8L5.7,400.4z"/>
	<path id="XMLID_8_" class="st0" d="M31.3,394c0-0.8,0-1.6,0-1.6c0-0.8,0-0.8,0-0.8s0-0.8-0.8-0.8h-0.8h-0.8l0,0l0,0
		c0.8,0,1.6,0,3.2,0c0.8,0,2.4,0,4,0c0.8,0,2.4,0,3.2,0c0.8,0,1.6,0,2.4,0.8c0.8,0.8,1.6,0.8,1.6,1.6c0.8,0.8,0.8,1.6,0.8,2.4
		c0,0.8,0,1.6,0,1.6c0,0.8-0.8,0.8-0.8,1.6c0,0.8-0.8,0.8-1.6,0.8s-0.8,0.8-1.6,0.8l0,0c0,0,0,0,0,0.8c1.6,2.4,2.4,4,3.2,5.6
		c0.8,1.6,1.6,2.4,2.4,3.2c0.8,0.8,1.6,0.8,2.4,0.8l0,0l0,0c0,0-0.8,0-1.6,0s-1.6,0-1.6,0c-0.8,0-0.8,0-1.6-0.8
		c-0.8-0.8-0.8-0.8-1.6-0.8s-0.8-0.8-1.6-1.6c0,0-0.8-0.8-1.6-2.4c-0.8-0.8-1.6-1.6-1.6-2.4l-0.8-0.8c0,0-0.8,0-1.6,0s-0.8,0-1.6,0
		c0,0,0,0,0,0.8v4c0,0.8,0,1.6,0,2.4c0,0.8,0,0.8,0,0.8s0,0.8,0.8,0.8h0.8h0.8l0,0c0,0,0,0,0,0.8c-0.8,0-1.6,0-1.6,0
		c-0.8,0-1.6,0-1.6,0c-0.8,0-0.8,0-1.6,0c-0.8,0-1.6,0-2.4,0c0,0,0,0,0-0.8l0,0h0.8c0.8,0,0.8,0,0.8,0s0.8,0,0.8-0.8
		c0-0.8,0-0.8,0-0.8c0-0.8,0-0.8,0-2.4V394H31.3z M33.7,398.8c0,0.8,0,0.8,0,0.8s0,0,0.8,0s0.8,0,1.6,0c0.8,0,1.6,0,1.6,0
		c0.8,0,0.8,0,1.6-0.8c0.8,0,0.8-0.8,0.8-1.6c0-0.8,0.8-1.6,0.8-2.4c0-1.6-0.8-2.4-1.6-3.2c-0.8-0.8-2.4-1.6-4-1.6
		c-0.8,0-1.6,0-1.6,0s0,0,0,0.8L33.7,398.8L33.7,398.8z"/>
	<path id="XMLID_11_" class="st0" d="M56.9,393.2c0-0.8-0.8-1.6-0.8-1.6s-0.8-0.8-1.6-0.8h-0.8l0,0c0,0,0,0,0-0.8c0.8,0,1.6,0,3.2,0
		c0.8,0,1.6,0,1.6,0c0.8,0,1.6,0,1.6,0s0,0,0,0.8l0,0h-0.8c-0.8,0-0.8,0-0.8,0l0,0c0,0,0,0.8,0.8,1.6c0,0.8,0.8,1.6,0.8,2.4
		c1.6,4.8,3.2,8,4,10.4c0-0.8,0.8-0.8,0.8-1.6s0.8-1.6,0.8-1.6c0-0.8,0.8-1.6,1.6-3.2c0-0.8,0.8-0.8,0.8-1.6c0-0.8,0.8-1.6,0.8-1.6
		c0-0.8,0.8-1.6,0.8-1.6l0.8-1.6c0-0.8,0-0.8,0-1.6l0,0h-0.8h-0.8l0,0c0,0,0,0,0-0.8c0.8,0,1.6,0,3.2,0c0.8,0,1.6,0,3.2,0
		c0,0,0,0,0,0.8l0,0h-0.8c-0.8,0-0.8,0.8-1.6,0.8c-0.8,0.8-0.8,1.6-1.6,3.2c-0.8,1.6-1.6,2.4-1.6,4l-1.6,4c0,0.8-0.8,1.6-0.8,2.4
		c0,0.8-0.8,1.6-0.8,2.4c0,0.8-0.8,1.6-0.8,2.4c0,0.8-0.8,0.8-0.8,1.6l0,0c0,0,0,0-0.8,0c0-0.8,0-1.6-0.8-2.4
		c-0.8-0.8-0.8-1.6-0.8-2.4L56.9,393.2z"/>
	<path id="XMLID_13_" class="st0" d="M93.7,402.8C93.7,402.8,93.7,402,93.7,402.8c-0.8-0.8-0.8-0.8-1.6-0.8h-4.8h-0.8c0,0,0,0,0,0.8
		l-0.8,3.2c-0.8,1.6-0.8,2.4-0.8,2.4s0,0,0,0.8c0,0,0,0,0.8,0h0.8l0,0c0,0,0,0,0,0.8c-0.8,0-0.8,0-2.4,0h-0.8c-0.8,0-1.6,0-2.4,0
		h-0.8c0,0,0,0,0-0.8l0,0h0.8c0.8,0,0.8,0,0.8-0.8l0.8-0.8c0,0,0-0.8,0.8-1.6c0.8-1.6,1.6-4,2.4-5.6l3.2-8c0-0.8,0.8-1.6,0.8-1.6
		l0,0l0,0c0,0,0.8,0,0.8-0.8c0-0.8,0.8-0.8,0.8-0.8h0.8c0,0.8,0.8,2.4,1.6,4v0.8l4,12.8c0,0.8,0.8,1.6,0.8,1.6s0,0.8,0.8,0.8
		c0.8,0,0,0,0.8,0.8h0.8h0.8l0,0c0,0,0,0,0,0.8c-0.8,0-1.6,0-1.6,0c-0.8,0-1.6,0-1.6,0c-0.8,0-1.6,0-3.2,0c0,0,0,0-0.8,0
		c0,0,0,0,0-0.8l0,0h0.8c0.8,0,0.8,0,0.8-0.8c0,0,0-0.8-0.8-1.6L93.7,402.8z M87.3,400.4L87.3,400.4
		C87.3,401.2,88.1,401.2,87.3,400.4l4.8,0.8c0.8,0,0.8,0,0.8,0s0,0,0-0.8l-1.6-4.8c0-0.8,0-0.8-0.8-1.6v-0.8l0,0c0,0,0,0,0,0.8
		c0,0,0,0.8-0.8,0.8L87.3,400.4z"/>
	<path id="XMLID_16_" class="st0" d="M112.9,394c0-0.8,0-1.6,0-1.6c0-0.8,0-0.8,0-0.8s0-0.8-0.8-0.8h-0.8h-0.8l0,0l0,0
		c0.8,0,1.6,0,3.2,0c0.8,0,2.4,0,4,0c0.8,0,2.4,0,3.2,0c0.8,0,1.6,0,2.4,0.8c0.8,0.8,1.6,0.8,1.6,1.6c0.8,0.8,0.8,1.6,0.8,2.4
		c0,0.8,0,1.6,0,1.6c0,0.8-0.8,0.8-0.8,1.6c0,0.8-0.8,0.8-1.6,0.8c-0.8,0-0.8,0.8-1.6,0.8l0,0c0,0,0,0,0,0.8c1.6,2.4,2.4,4,3.2,5.6
		c0.8,1.6,1.6,2.4,2.4,3.2c0.8,0.8,1.6,0.8,2.4,0.8l0,0l0,0c0,0-0.8,0-1.6,0s-1.6,0-1.6,0c-0.8,0-0.8,0-1.6-0.8
		c-0.8-0.8-0.8-0.8-1.6-0.8c-0.8,0-0.8-0.8-1.6-1.6c0,0-0.8-0.8-1.6-2.4c-0.8-0.8-1.6-1.6-1.6-2.4l-0.8-0.8c0,0-0.8,0-1.6,0
		c-0.8,0-0.8,0-1.6,0c0,0,0,0,0,0.8v4c0,0.8,0,1.6,0,2.4c0,0.8,0,0.8,0,0.8s0,0.8,0.8,0.8h0.8h0.8l0,0c0,0,0,0,0,0.8
		c-0.8,0-1.6,0-1.6,0c-0.8,0-1.6,0-1.6,0c-0.8,0-0.8,0-1.6,0c-0.8,0-1.6,0-2.4,0c0,0,0,0,0-0.8l0,0h0.8c0.8,0,0.8,0,0.8,0
		s0.8,0,0.8-0.8c0-0.8,0-0.8,0-0.8c0-0.8,0-0.8,0-2.4V394H112.9z M115.3,398.8c0,0.8,0,0.8,0,0.8s0,0,0.8,0c0.8,0,0.8,0,1.6,0
		s1.6,0,1.6,0c0.8,0,0.8,0,1.6-0.8c0.8,0,0.8-0.8,0.8-1.6c0-0.8,0.8-1.6,0.8-2.4c0-1.6-0.8-2.4-1.6-3.2c-0.8-0.8-2.4-1.6-4-1.6
		c-0.8,0-1.6,0-1.6,0s0,0,0,0.8L115.3,398.8L115.3,398.8z"/>
	<path id="XMLID_19_" class="st0" d="M141.7,394c0-0.8,0-1.6,0-2.4s-0.8-0.8-0.8-0.8h-0.8l0,0l0,0c3.2,0,5.6,0,8,0c1.6,0,2.4,0,4,0
		c1.6,0,2.4,0,3.2,0.8c2.4,0.8,3.2,1.6,4.8,3.2c0.8,1.6,1.6,3.2,1.6,5.6c0,1.6-0.8,4-1.6,5.6s-2.4,3.2-4,4c-0.8,0.8-2.4,0.8-3.2,0.8
		c-0.8,0-2.4,0-4,0c-0.8,0-1.6,0-3.2,0c-0.8,0-1.6,0-1.6,0c-0.8,0-0.8,0-1.6,0s-1.6,0-2.4,0c0,0,0,0,0-0.8l0,0h0.8
		c0.8,0,0.8,0,0.8,0s0.8,0,0.8-0.8c0-0.8,0-0.8,0-0.8c0-0.8,0-0.8,0-2.4v-12H141.7z M144.1,404.4c0,0.8,0,1.6,0,2.4
		c0,0.8,0,0.8,0.8,1.6c0,0.8,0.8,0.8,1.6,0.8s1.6,0,2.4,0c3.2,0,4.8-0.8,6.4-2.4c1.6-1.6,2.4-4,2.4-7.2c0-0.8,0-1.6-0.8-3.2
		c0-0.8-0.8-2.4-1.6-3.2c-0.8-0.8-1.6-1.6-3.2-2.4c-1.6-0.8-3.2-0.8-4.8-0.8c-0.8,0-1.6,0-2.4,0c-0.8,0-0.8,0-0.8,0s0,0.8,0,2.4
		L144.1,404.4L144.1,404.4z"/>
	<path id="XMLID_22_" class="st0" d="M211.3,392.4c0-0.8,0-1.6,0-2.4c0-0.8,0-1.6,0-2.4s0-1.6,0-2.4c0-0.8,0-1.6-0.8-1.6
		c0-0.8-0.8-0.8-2.4-0.8h-0.8c0,0,0,0,0-0.8v-0.8c1.6,0,3.2,0,4.8,0c0.8,0,1.6,0,2.4,0c0.8,0,1.6,0,2.4,0c0,0,0,0,0,0.8
		c0,0,0,0,0,0.8h-0.8c-0.8,0-0.8,0-1.6,0l-0.8,0.8c0,0.8-0.8,1.6-0.8,3.2c0,1.6,0,3.2,0,5.6v4.8c0,2.4,0,4-0.8,5.6
		c-0.8,1.6-1.6,3.2-2.4,4.8c-0.8,0.8-2.4,1.6-4,2.4c-1.6,0.8-3.2,0.8-4.8,0.8c-1.6,0-3.2,0-4.8-0.8c-1.6,0-2.4-0.8-4-1.6
		c-0.8-0.8-2.4-2.4-2.4-4c-0.8-1.6-0.8-4-0.8-6.4v-10.4c0-1.6,0-2.4,0-3.2c0-0.8,0-0.8,0-1.6l-0.8-0.8c0,0-0.8,0-1.6,0h-0.8
		c0,0,0,0,0-0.8v-0.8c0.8,0,2.4,0,3.2,0c0.8,0,1.6,0,2.4,0c0.8,0,1.6,0,2.4,0c0.8,0,1.6,0,3.2,0c0,0,0,0,0,0.8c0,0,0,0,0,0.8h-0.8
		c-0.8,0-0.8,0-1.6,0s-0.8,0.8-0.8,0.8s0,0.8,0,1.6c0,0.8,0,1.6,0,3.2v9.6c0,1.6,0,3.2,0.8,4.8c0,1.6,0.8,2.4,1.6,4
		c0.8,0.8,1.6,1.6,2.4,2.4c0.8,0.8,2.4,0.8,4,0.8c1.6,0,3.2,0,4-0.8c0.8-0.8,2.4-1.6,2.4-2.4c0-0.8,1.6-2.4,1.6-4s0.8-3.2,0.8-4.8
		L211.3,392.4L211.3,392.4z"/>
	<path id="XMLID_24_" class="st0" d="M242.5,405.2c0,0.8,0,1.6,0,2.4c0,0.8,0,0.8,0,1.6c0,0.8,0,0.8,0,0.8s0,0-0.8,0
		c0,0-0.8-0.8-0.8-1.6c-0.8-0.8-1.6-1.6-2.4-3.2l-7.2-8c0,0-0.8-0.8-1.6-1.6c-0.8-0.8-0.8-1.6-1.6-1.6c0-0.8-0.8-0.8-0.8-0.8l0,0
		c0,0,0,0.8,0,2.4v6.4c0,0,0,0.8,0,1.6s0,1.6,0,1.6c0,0.8,0,1.6,0,1.6c0,0.8,0,0.8,0,0.8s0.8,0.8,1.6,0.8h0.8l0,0c0,0,0,0,0,0.8
		c-1.6,0-2.4,0-4,0c-0.8,0-0.8,0-1.6,0s-0.8,0-1.6,0c0,0,0,0,0-0.8l0,0h0.8c0.8,0,0.8,0,1.6-0.8c0-0.8,0-1.6,0-2.4c0-0.8,0-2.4,0-4
		v-8.8c0-0.8,0-0.8,0-1.6c0,0,0-0.8-0.8-0.8c0,0-0.8,0-0.8-0.8h-0.8h-0.8l0,0c0,0,0,0,0-0.8c0.8,0,0.8,0,1.6,0s1.6,0,1.6,0
		c0.8,0,0.8,0,1.6,0c0,0,0,0.8,0.8,1.6c0,0.8,0.8,0.8,1.6,1.6c0.8,0.8,0.8,0.8,1.6,1.6c0.8,0.8,0.8,0.8,1.6,1.6c0,0,0,0.8,0.8,0.8
		l3.2,3.2c0.8,1.6,2.4,2.4,3.2,3.2c0.8,0.8,1.6,1.6,2.4,2.4l0,0c0,0,0-0.8,0-1.6v-6.4c0-0.8,0-0.8,0-1.6c0-0.8,0-1.6,0-1.6
		c0-0.8,0-1.6,0-1.6v-0.8c0,0,0,0-0.8,0c0,0-0.8,0-1.6,0h-0.8l0,0c0,0,0,0,0-0.8c0.8,0,1.6,0,1.6,0c0.8,0,0.8,0,1.6,0
		c0.8,0,0.8,0,1.6,0s0.8,0,1.6,0c0,0,0,0,0,0.8l0,0h-0.8c-0.8,0-1.6,0-1.6,0.8s0,0.8,0,2.4c0,0.8,0,2.4,0,4L242.5,405.2L242.5,405.2
		z"/>
	<path id="XMLID_26_" class="st0" d="M257.7,394.8c0-0.8,0-1.6,0-2.4c0-0.8,0-0.8,0-0.8s0-0.8-0.8-0.8h-0.8h-0.8l0,0V390
		c0.8,0,1.6,0,2.4,0c0.8,0,1.6,0,1.6,0c0.8,0,0.8,0,1.6,0c0.8,0,1.6,0,2.4,0c0,0,0,0,0,0.8l0,0h-0.8c-0.8,0-0.8,0-0.8,0
		s-0.8,0-0.8,0.8v0.8c0,0,0,0.8,0,2.4V406c0,0.8,0,1.6,0,2.4c0,0.8,0,0.8,0,0.8s0,0.8,0.8,0.8h0.8h0.8l0,0v0.8c-0.8,0-1.6,0-2.4,0
		c-0.8,0-1.6,0-1.6,0c-0.8,0-0.8,0-1.6,0c-0.8,0-1.6,0-2.4,0c0,0,0,0,0-0.8l0,0h0.8c0.8,0,0.8,0,0.8,0s0.8,0,0.8-0.8
		c0-0.8,0-0.8,0-0.8c0-0.8,0-0.8,0-2.4V394.8z"/>
	<path id="XMLID_28_" class="st0" d="M274.5,393.2c0-0.8-0.8-1.6-0.8-1.6s-0.8-0.8-1.6-0.8h-0.8l0,0c0,0,0,0,0-0.8
		c0.8,0,1.6,0,3.2,0c0.8,0,1.6,0,1.6,0c0.8,0,1.6,0,1.6,0s0,0,0,0.8l0,0h-0.8c-0.8,0-0.8,0-0.8,0l0,0c0,0,0,0.8,0.8,1.6
		c0,0.8,0.8,1.6,0.8,2.4c1.6,4.8,3.2,8,4,10.4c0-0.8,0.8-0.8,0.8-1.6s0.8-1.6,0.8-1.6c0-0.8,0.8-1.6,1.6-3.2c0-0.8,0.8-0.8,0.8-1.6
		c0-0.8,0.8-1.6,0.8-1.6c0-0.8,0.8-1.6,0.8-1.6l0.8-1.6c0-0.8,0-0.8,0-1.6l0,0h-0.8h-0.8l0,0c0,0,0,0,0-0.8c0.8,0,1.6,0,3.2,0
		c0.8,0,1.6,0,3.2,0c0,0,0,0,0,0.8l0,0h-0.8c-0.8,0-0.8,0.8-1.6,0.8c-0.8,0.8-0.8,1.6-1.6,3.2c-0.8,1.6-1.6,2.4-1.6,4l-1.6,4
		c0,0.8-0.8,1.6-0.8,2.4c0,0.8-0.8,1.6-0.8,2.4c0,0.8-0.8,1.6-0.8,2.4c0,0.8-0.8,0.8-0.8,1.6l0,0c0,0,0,0-0.8,0c0-0.8,0-1.6-0.8-2.4
		c-0.8-0.8-0.8-1.6-0.8-2.4L274.5,393.2z"/>
	<path id="XMLID_30_" class="st0" d="M304.1,394c0-0.8,0-1.6,0-2.4c0-0.8,0-0.8,0-0.8s0-0.8-0.8-0.8h-0.8h-0.8l0,0v-0.8
		c0.8,0,1.6,0,1.6,0c0.8,0,1.6,0,1.6,0h5.6c1.6,0,2.4,0,3.2,0c0.8,0,0.8,0,1.6,0c0,0,0,0.8,0,1.6c0,0.8,0,1.6,0,2.4l0,0
		c0,0,0,0-0.8,0l0,0l0,0c0-0.8-0.8-1.6-0.8-1.6c0-0.8-0.8-0.8-1.6-0.8c-0.8,0-1.6,0-3.2,0h-2.4c-0.8,0-0.8,0-0.8,0v0.8v6.4
		c0,0.8,0,0.8,0,0.8s0,0,0.8,0h1.6c1.6,0,2.4,0,2.4,0s0,0,0.8,0c0,0,0,0,0-0.8v-1.6c0,0,0,0,0.8,0c0,0,0,0,0.8,0c0,0,0,0.8,0,1.6
		c0,0.8,0,1.6,0,1.6s0,0.8,0,1.6c0,0.8,0,0.8,0,0.8s0,0-0.8,0c0,0,0,0-0.8,0v-1.6v-0.8c0,0,0,0-0.8-0.8c0,0-0.8,0-2.4,0h-1.6
		c-0.8,0-0.8,0-0.8,0s0,0,0,0.8v4c0,1.6,0,3.2,0.8,3.2l0.8,0.8c0.8,0,1.6,0,2.4,0c0.8,0,2.4,0,2.4,0c0.8,0,0.8,0,1.6,0l0.8-0.8
		c0,0,0.8-0.8,0.8-1.6l0,0h0.8v0.8c0,0,0,0.8,0,1.6s0,0.8-0.8,1.6v0.8c-2.4,0-5.6,0-8,0h-2.4c-0.8,0-0.8,0-1.6,0s-1.6,0-2.4,0
		c0,0,0,0,0-0.8l0,0h0.8c0.8,0,0.8,0,0.8,0s0.8,0,0.8-0.8c0-0.8,0-0.8,0-0.8c0-0.8,0-0.8,0-2.4V394H304.1z"/>
	<path id="XMLID_32_" class="st0" d="M329.7,394c0-0.8,0-1.6,0-1.6v-0.8v-0.8h-0.8h-0.8l0,0l0,0c0.8,0,1.6,0,3.2,0c0.8,0,2.4,0,4,0
		c0.8,0,2.4,0,3.2,0c0.8,0,1.6,0,2.4,0.8c0.8,0.8,1.6,0.8,1.6,1.6c0.8,0.8,0.8,1.6,0.8,2.4c0,0.8,0,1.6,0,1.6c0,0.8-0.8,0.8-0.8,1.6
		c0,0.8-0.8,0.8-1.6,0.8c-0.8,0-0.8,0.8-1.6,0.8l0,0c0,0,0,0,0,0.8c1.6,2.4,2.4,4,3.2,5.6c0.8,1.6,1.6,2.4,2.4,3.2
		c0.8,0.8,1.6,0.8,2.4,0.8l0,0l0,0c0,0-0.8,0-1.6,0c-0.8,0-1.6,0-1.6,0c-0.8,0-0.8,0-1.6-0.8c-0.8,0-0.8-0.8-1.6-0.8
		c-0.8,0-0.8-0.8-1.6-1.6c0,0-0.8-0.8-1.6-2.4c-0.8-0.8-1.6-1.6-1.6-2.4l-0.8-0.8c0,0-0.8,0-1.6,0c-0.8,0-0.8,0-1.6,0c0,0,0,0,0,0.8
		v4c0,0.8,0,1.6,0,2.4c0,0.8,0,0.8,0,0.8s0,0.8,0.8,0.8h0.8h0.8l0,0c0,0,0,0,0,0.8c-0.8,0-1.6,0-1.6,0h-1.6c-0.8,0-0.8,0-1.6,0
		c-0.8,0-1.6,0-2.4,0c0,0,0,0,0-0.8l0,0h0.8c0.8,0,0.8,0,0.8,0s0.8,0,0.8-0.8v-0.8c0-0.8,0-0.8,0-2.4L329.7,394L329.7,394z
		 M332.1,398.8c0,0.8,0,0.8,0,0.8s0,0,0.8,0c0.8,0,0.8,0,1.6,0c0.8,0,1.6,0,1.6,0c0.8,0,0.8,0,1.6-0.8c0.8,0,0.8-0.8,0.8-1.6
		c0-0.8,0.8-1.6,0.8-2.4c0-1.6-0.8-2.4-1.6-3.2c-0.8-0.8-2.4-1.6-4-1.6c-0.8,0-1.6,0-1.6,0s0,0,0,0.8L332.1,398.8L332.1,398.8z"/>
	<path id="XMLID_35_" class="st0" d="M364.9,409.2c-0.8,0.8-2.4,1.6-4.8,1.6c-0.8,0-2.4,0-3.2,0c-0.8,0-1.6-0.8-1.6-0.8
		s0-0.8-0.8-1.6c-0.8-0.8,0-1.6,0-2.4c0,0,0,0,0.8,0l0,0c0,0.8,0,0.8,0.8,1.6c0,0.8,0.8,0.8,0.8,1.6c0.8,0.8,0.8,0.8,1.6,0.8
		c0.8,0,1.6,0.8,2.4,0.8c1.6,0,2.4,0,3.2-0.8c0.8-0.8,0.8-1.6,0.8-2.4c0-0.8,0-1.6-0.8-2.4c0-0.8-0.8-1.6-2.4-2.4l-3.2-1.6
		c-0.8-0.8-1.6-1.6-2.4-2.4c-0.8-0.8-0.8-1.6-0.8-3.2c0-1.6,0.8-2.4,1.6-4c0.8-0.8,2.4-1.6,4.8-1.6c0.8,0,0.8,0,1.6,0s0.8,0,1.6,0
		c0.8,0,0.8,0,0.8,0s0,0.8,0,1.6s0,1.6,0,2.4c0,0,0,0-0.8,0l0,0c0-0.8,0-0.8-0.8-1.6c-0.8-0.8-0.8-0.8-0.8-0.8s-0.8-0.8-1.6-0.8
		c-0.8,0-0.8,0-1.6,0c-0.8,0-1.6,0-1.6,0c-0.8,0-0.8,0.8-0.8,0.8l-0.8,0.8c0,0,0,0.8,0,1.6c0,0.8,0,1.6,0.8,2.4
		c0.8,0.8,0.8,0.8,1.6,1.6l2.4,1.6c0.8,0.8,2.4,1.6,3.2,2.4c0.8,0.8,0.8,2.4,0.8,3.2C367.3,406.8,366.5,408.4,364.9,409.2z"/>
	<path id="XMLID_37_" class="st0" d="M380.1,394.8c0-0.8,0-1.6,0-2.4c0-0.8,0-0.8,0-0.8s0-0.8-0.8-0.8h-0.8h-0.8l0,0V390
		c0.8,0,1.6,0,2.4,0c0.8,0,1.6,0,1.6,0c0.8,0,0.8,0,1.6,0s1.6,0,2.4,0c0,0,0,0,0,0.8l0,0h-0.8c-0.8,0-0.8,0-0.8,0s-0.8,0-0.8,0.8
		v0.8c0,0,0,0.8,0,2.4V406c0,0.8,0,1.6,0,2.4c0,0.8,0,0.8,0,0.8s0,0.8,0.8,0.8h0.8h0.8l0,0v0.8c-0.8,0-1.6,0-2.4,0
		c-0.8,0-1.6,0-1.6,0c-0.8,0-0.8,0-1.6,0c-0.8,0-1.6,0-2.4,0c0,0,0,0,0-0.8l0,0h0.8c0.8,0,0.8,0,0.8,0s0.8,0,0.8-0.8v-0.8
		c0-0.8,0-0.8,0-2.4V394.8z"/>
	<path id="XMLID_39_" class="st0" d="M405.7,405.2c0,0.8,0,1.6,0,2.4s0,0.8,0,0.8s0,0.8,0.8,0.8h0.8h0.8l0,0v0.8c-0.8,0-1.6,0-2.4,0
		c-0.8,0-1.6,0-1.6,0c-0.8,0-0.8,0-1.6,0c-0.8,0-1.6,0-2.4,0c0,0,0,0,0-0.8l0,0h0.8c0.8,0,0.8,0,0.8,0s0.8,0,0.8-0.8v-0.8
		c0,0,0-0.8,0-2.4v-13.6c0-0.8,0-0.8,0-0.8s0,0-0.8,0h-1.6c-0.8,0-1.6,0-2.4,0c-0.8,0-0.8,0-1.6,0.8l-0.8,0.8c0,0,0,0.8-0.8,1.6l0,0
		h-0.8c0-0.8,0.8-1.6,0.8-2.4c0-0.8,0-1.6,0.8-2.4l0,0l0,0c0,0.8,0,0.8,0.8,0.8c0,0,0.8,0,1.6,0h12.8c0.8,0,1.6,0,1.6,0
		s0.8,0,0.8-0.8l0,0l0,0l0,0c0,0.8,0,0.8,0,1.6c0,0.8,0,1.6,0,2.4l0,0l0,0c0,0,0,0-0.8,0l0,0c0-0.8,0-0.8,0-1.6s0-0.8-0.8-0.8
		c-0.8-0.8-1.6-0.8-3.2-0.8h-2.4c-0.8,0-0.8,0-0.8,0s0,0,0,0.8v14.4H405.7z"/>
	<path id="XMLID_41_" class="st0" d="M432.9,405.2c0,0.8,0,1.6,0,2.4c0,0.8,0,0.8,0,0.8s0,0.8,0.8,0.8c0.8,0,0.8,0,0.8,0h0.8l0,0
		c0,0,0,0,0,0.8c-0.8,0-1.6,0-2.4,0c-0.8,0-1.6,0-1.6,0c-0.8,0-0.8,0-1.6,0c-0.8,0-1.6,0-2.4,0c0,0,0,0,0-0.8l0,0h0.8
		c0.8,0,0.8,0,0.8,0s0.8,0,0.8-0.8v-0.8c0,0,0-0.8,0-2.4v-1.6c0-0.8,0-0.8,0-0.8V402v-0.8c0,0,0-0.8-0.8-0.8l-4-7.2
		c-0.8-0.8-0.8-1.6-1.6-1.6c0,0-0.8-0.8-1.6-0.8h-0.8l0,0c0,0,0,0,0-0.8c0.8,0,2.4,0,3.2,0c1.6,0,2.4,0,3.2,0c0,0,0,0,0,0.8l0,0l0,0
		c-0.8,0-0.8,0-0.8,0l0,0l0,0v0.8v0.8c0,0,0,0,0,0.8c0,0,0.8,0.8,0.8,1.6c0.8,2.4,1.6,4,2.4,4.8c0.8-1.6,2.4-4,3.2-5.6l0,0
		c0.8-0.8,0.8-1.6,1.6-2.4c0-0.8,0.8-0.8,0.8-0.8l0,0h-0.8h-0.8l0,0c0,0,0,0,0-0.8c0.8,0,2.4,0,3.2,0c0.8,0,1.6,0,3.2,0
		c0,0,0,0,0,0.8l0,0h-0.8c-0.8,0-0.8,0.8-1.6,0.8c-0.8,0-0.8,1.6-1.6,3.2c0,0,0,0.8-0.8,0.8l-1.6,3.2c0,0.8-0.8,0.8-0.8,1.6v0.8v0.8
		c0,0,0,0.8,0,1.6L432.9,405.2L432.9,405.2z"/>
	<path id="XMLID_43_" class="st0" d="M470.5,387.6c0-1.6,0-2.4,0-3.2c0-0.8,0-0.8,0-1.6l-0.8-0.8c0,0-0.8,0-1.6,0h-0.8
		c0,0,0,0,0-0.8v-0.8c1.6,0,2.4,0,3.2,0c0.8,0,1.6,0,2.4,0c0.8,0,1.6,0,2.4,0s1.6,0,3.2,0c0,0,0,0,0,0.8c0,0,0,0,0,0.8h-0.8
		c-0.8,0-0.8,0-1.6,0l-0.8,0.8c0,0,0,0.8,0,1.6c0,0.8,0,1.6,0,3.2v15.2c0,1.6,0,2.4,0,3.2c0,0.8,0,1.6,0.8,1.6c0,0,0.8,0.8,1.6,0.8
		c0.8,0,1.6,0,3.2,0c1.6,0,3.2,0,4,0c0.8,0,1.6,0,1.6-0.8c0.8,0,0.8-0.8,1.6-1.6c0.8-0.8,0.8-1.6,1.6-3.2l0,0c0.8,0,0.8,0,0.8,0v0.8
		c0,0,0,0.8-0.8,1.6c0,0.8-0.8,1.6-0.8,2.4s0,0.8-0.8,1.6c-0.8,0-2.4,0-4.8,0c-2.4,0-4,0-6.4,0h-4c-0.8,0-1.6,0-2.4,0
		c-0.8,0-1.6,0-3.2,0c0,0,0,0,0-0.8c0,0,0,0,0-0.8h1.6c0.8,0,0.8,0,1.6,0c0.8,0,0.8-0.8,0.8-0.8s0-0.8,0-1.6c0-0.8,0-1.6,0-3.2
		v-14.4H470.5z"/>
	<path id="XMLID_45_" class="st0" d="M502.5,394.8c0-0.8,0-1.6,0-2.4c0-0.8,0-0.8,0-0.8s0-0.8-0.8-0.8h-0.8h-0.8l0,0V390
		c0.8,0,1.6,0,2.4,0c0.8,0,1.6,0,1.6,0c0.8,0,0.8,0,1.6,0c0.8,0,1.6,0,2.4,0c0,0,0,0,0,0.8l0,0h-0.8c-0.8,0-0.8,0-0.8,0
		s-0.8,0-0.8,0.8v0.8c0,0,0,0.8,0,2.4V406c0,0.8,0,1.6,0,2.4c0,0.8,0,0.8,0,0.8s0,0.8,0.8,0.8h0.8h0.8l0,0v0.8c-0.8,0-1.6,0-2.4,0
		c-0.8,0-1.6,0-1.6,0c-0.8,0-0.8,0-1.6,0c-0.8,0-1.6,0-2.4,0c0,0,0,0,0-0.8l0,0h0.8c0.8,0,0.8,0,0.8,0s0.8,0,0.8-0.8v-0.8
		c0-0.8,0-0.8,0-2.4V394.8z"/>
	<path id="XMLID_47_" class="st0" d="M521.7,394c0-0.8,0-1.6,0-2.4c0,0-0.8-0.8-1.6-0.8h-0.8l0,0l0,0c1.6,0,4,0,6.4,0
		c0.8,0,2.4,0,3.2,0s1.6,0,2.4,0.8c0.8,0,1.6,0.8,1.6,1.6c0.8,0.8,0.8,1.6,0.8,2.4c0,0.8,0,1.6-0.8,2.4c-0.8,0.8-1.6,1.6-2.4,1.6
		c0,0,0,0,0.8,0.8c0.8,0,0.8,0,1.6,0.8c0.8,0.8,0.8,0.8,1.6,0.8c0.8,0.8,0.8,0.8,0.8,1.6s0,1.6,0,2.4c0,1.6-0.8,3.2-2.4,4
		c-1.6,0.8-3.2,1.6-6.4,1.6c0,0-0.8,0-1.6,0s-1.6,0-2.4,0c-0.8,0-1.6,0-2.4,0h-0.8c0,0,0,0,0-0.8l0,0h0.8c0.8,0,0.8,0,0.8,0
		s0,0,0.8-0.8v-0.8c0-0.8,0-0.8,0-2.4L521.7,394L521.7,394z M524.1,398C524.1,398,524.1,398.8,524.1,398c0,0.8,0.8,0.8,0.8,0.8l0,0
		l0,0c1.6,0,3.2,0,4-0.8c0.8-0.8,0.8-1.6,0.8-3.2c0-1.6-0.8-2.4-1.6-3.2s-1.6-0.8-3.2-0.8c-0.8,0-0.8,0-1.6,0l0,0c0,0,0,0,0,0.8v6.4
		H524.1z M524.1,405.2c0,0.8,0,1.6,0,2.4c0,0.8,0,0.8,0.8,1.6l0.8,0.8c0,0,0.8,0,1.6,0c1.6,0,2.4,0,3.2-0.8c0.8-0.8,1.6-1.6,1.6-3.2
		c0-0.8,0-1.6,0-1.6c0-0.8-0.8-0.8-0.8-1.6c-0.8-0.8-0.8-0.8-1.6-1.6c-0.8,0-1.6-0.8-3.2-0.8c-0.8,0-1.6,0-1.6,0s0,0,0,0.8v4H524.1z
		"/>
	<path id="XMLID_51_" class="st0" d="M548.9,394c0-0.8,0-1.6,0-1.6v-0.8v-0.8h-0.8h-0.8l0,0l0,0c0.8,0,1.6,0,3.2,0c0.8,0,2.4,0,4,0
		c0.8,0,2.4,0,3.2,0s1.6,0,2.4,0.8c0.8,0.8,1.6,0.8,1.6,1.6c0.8,0.8,0.8,1.6,0.8,2.4c0,0.8,0,1.6,0,1.6c0,0.8-0.8,0.8-0.8,1.6
		c0,0.8-0.8,0.8-1.6,0.8s-0.8,0.8-1.6,0.8l0,0c0,0,0,0,0,0.8c1.6,2.4,2.4,4,3.2,5.6c0.8,1.6,1.6,2.4,2.4,3.2
		c0.8,0.8,1.6,0.8,2.4,0.8l0,0l0,0c0,0-0.8,0-1.6,0s-1.6,0-1.6,0c-0.8,0-0.8,0-1.6-0.8c-0.8-0.8-0.8-0.8-1.6-0.8s-0.8-0.8-1.6-1.6
		c0,0-0.8-0.8-1.6-2.4c-0.8-0.8-1.6-1.6-1.6-2.4l-0.8-0.8c0,0-0.8,0-1.6,0s-0.8,0-1.6,0c-0.8,0,0,0,0,0.8v4c0,0.8,0,1.6,0,2.4
		c0,0.8,0,0.8,0,0.8s0,0.8,0.8,0.8h0.8h0.8l0,0c0,0,0,0,0,0.8c-0.8,0-1.6,0-1.6,0c-0.8,0-1.6,0-1.6,0c-0.8,0-0.8,0-1.6,0
		s-1.6,0-2.4,0c0,0,0,0,0-0.8l0,0h0.8c0.8,0,0.8,0,0.8,0s0.8,0,0.8-0.8v-0.8c0-0.8,0-0.8,0-2.4L548.9,394L548.9,394z M551.3,398.8
		c0,0.8,0,0.8,0,0.8s0,0,0.8,0s0.8,0,1.6,0s1.6,0,1.6,0c0.8,0,0.8,0,1.6-0.8c0.8,0,0.8-0.8,0.8-1.6c0-0.8,0.8-1.6,0.8-2.4
		c0-1.6-0.8-2.4-1.6-3.2s-2.4-1.6-4-1.6c-0.8,0-1.6,0-1.6,0s0,0,0,0.8L551.3,398.8L551.3,398.8z"/>
	<path id="XMLID_54_" class="st0" d="M586.5,402.8C586.5,402.8,585.7,402,586.5,402.8c-0.8-0.8-0.8-0.8-1.6-0.8h-4.8h-0.8
		c0,0,0,0,0,0.8l-0.8,3.2c-0.8,1.6-0.8,2.4-0.8,2.4s0,0,0,0.8c0,0.8,0,0,0.8,0h0.8l0,0c0,0,0,0,0,0.8c-0.8,0-0.8,0-2.4,0h-0.8
		c-0.8,0-1.6,0-2.4,0h-0.8c0,0,0,0,0-0.8l0,0h0.8c0.8,0,0.8,0,0.8-0.8l0.8-0.8c0,0,0-0.8,0.8-1.6c0.8-1.6,1.6-4,2.4-5.6l3.2-8
		c0-0.8,0.8-1.6,0.8-1.6l0,0l0,0c0,0,0.8,0,0.8-0.8c0-0.8,0.8-0.8,0.8-0.8h0.8c0,0.8,0.8,2.4,1.6,4v0.8l4,12.8
		c0,0.8,0.8,1.6,0.8,1.6s0,0.8,0.8,0.8c0,0,0,0,0.8,0.8c0.8,0.8,0.8,0,0.8,0h0.8l0,0c0,0,0,0,0,0.8c-0.8,0-1.6,0-1.6,0h-1.6
		c-0.8,0-1.6,0-3.2,0c0,0,0,0-0.8,0c0,0,0,0,0-0.8l0,0h0.8c0.8,0,0.8,0,0.8-0.8c0,0,0-0.8,0-1.6L586.5,402.8z M580.1,400.4
		L580.1,400.4C580.1,401.2,580.1,401.2,580.1,400.4l4.8,0.8c0.8,0,0.8,0,0.8,0s0,0,0-0.8l-1.6-4.8c0-0.8,0-0.8-0.8-1.6v-0.8l0,0
		c0,0,0,0,0,0.8c0,0,0,0.8-0.8,0.8L580.1,400.4z"/>
	<path id="XMLID_57_" class="st0" d="M605.7,394c0-0.8,0-1.6,0-1.6v-0.8v-0.8h-0.8h-0.8l0,0l0,0c0.8,0,1.6,0,3.2,0c0.8,0,2.4,0,4,0
		c0.8,0,2.4,0,3.2,0c0.8,0,1.6,0,2.4,0.8c0.8,0.8,1.6,0.8,1.6,1.6c0.8,0.8,0.8,1.6,0.8,2.4c0,0.8,0,1.6,0,1.6c0,0.8-0.8,0.8-0.8,1.6
		c0,0.8-0.8,0.8-1.6,0.8s-0.8,0.8-1.6,0.8l0,0c0,0,0,0,0,0.8c1.6,2.4,2.4,4,3.2,5.6c0.8,1.6,1.6,2.4,2.4,3.2
		c0.8,0.8,1.6,0.8,2.4,0.8l0,0l0,0c0,0-0.8,0-1.6,0s-1.6,0-1.6,0c-0.8,0-0.8,0-1.6-0.8c-0.8-0.8-0.8-0.8-1.6-0.8s-0.8-0.8-1.6-1.6
		c0,0-0.8-0.8-1.6-2.4c-0.8-0.8-1.6-1.6-1.6-2.4l-0.8-0.8c0,0-0.8,0-1.6,0s-0.8,0-1.6,0s0,0,0,0.8v4c0,0.8,0,1.6,0,2.4
		c0,0.8,0,0.8,0,0.8s0,0.8,0.8,0.8h0.8h0.8l0,0c0,0,0,0,0,0.8c-0.8,0-1.6,0-1.6,0c-0.8,0-1.6,0-1.6,0c-0.8,0-0.8,0-1.6,0
		s-1.6,0-2.4,0c0,0,0,0,0-0.8l0,0h0.8c0.8,0,0.8,0,0.8,0s0.8,0,0.8-0.8v-0.8c0-0.8,0-0.8,0-2.4L605.7,394L605.7,394z M608.1,398.8
		c0,0.8,0,0.8,0,0.8s0,0,0.8,0s0.8,0,1.6,0c0.8,0,1.6,0,1.6,0c0.8,0,0.8,0,1.6-0.8c0.8,0,0.8-0.8,0.8-1.6c0-0.8,0.8-1.6,0.8-2.4
		c0-1.6-0.8-2.4-1.6-3.2s-2.4-1.6-4-1.6c-0.8,0-1.6,0-1.6,0s0,0,0,0.8L608.1,398.8L608.1,398.8z"/>
	<path id="XMLID_60_" class="st0" d="M639.3,405.2c0,0.8,0,1.6,0,2.4c0,0.8,0,0.8,0,0.8s0,0.8,0.8,0.8s0.8,0,0.8,0h0.8l0,0
		c0,0,0,0,0,0.8c-0.8,0-1.6,0-2.4,0c-0.8,0-1.6,0-1.6,0c-0.8,0-0.8,0-1.6,0s-1.6,0-2.4,0c0,0,0,0,0-0.8l0,0h0.8c0.8,0,0.8,0,0.8,0
		s0.8,0,0.8-0.8v-0.8c0,0,0-0.8,0-2.4v-1.6c0-0.8,0-0.8,0-0.8V402v-0.8c0,0,0-0.8-0.8-0.8l-4-7.2c-0.8-0.8-0.8-1.6-1.6-1.6
		c0,0-0.8-0.8-1.6-0.8h-0.8l0,0c0,0,0,0,0-0.8c0.8,0,2.4,0,3.2,0c1.6,0,2.4,0,3.2,0c0,0,0,0,0,0.8l0,0l0,0c-0.8,0-0.8,0-0.8,0l0,0
		l0,0v0.8v0.8c0,0,0,0,0,0.8c0,0,0.8,0.8,0.8,1.6c0.8,2.4,1.6,4,2.4,4.8c0.8-1.6,2.4-4,3.2-5.6l0,0c0.8-0.8,0.8-1.6,1.6-2.4
		c0-0.8,0.8-0.8,0.8-0.8l0,0h-0.8h-0.8l0,0c0,0,0,0,0-0.8c0.8,0,2.4,0,3.2,0c0.8,0,1.6,0,3.2,0c0,0,0,0,0,0.8l0,0h-0.8
		c-0.8,0-0.8,0.8-1.6,0.8s-0.8,1.6-1.6,3.2c0,0,0,0.8-0.8,0.8l-1.6,3.2c0,0.8-0.8,0.8-0.8,1.6v0.8v0.8c0,0,0,0.8,0,1.6L639.3,405.2
		L639.3,405.2z"/>
</g>
</svg>
