<?xml version="1.0" encoding="utf-8"?>
<!-- Generator: Adobe Illustrator 19.0.0, SVG Export Plug-In . SVG Version: 6.00 Build 0)  -->
<svg version="1.1" id="Layer_1" xmlns="http://www.w3.org/2000/svg" xmlns:xlink="http://www.w3.org/1999/xlink" x="0px" y="0px"
	 viewBox="0 0 691.9 72" style="enable-background:new 0 0 691.9 72;" xml:space="preserve">
<style type="text/css">
	.st0{fill:#414042;}
</style>
<g>
	<path class="st0" d="M268.7,53.8v17.4h-3.1V53.8H261v-2.9h12.3v2.9H268.7z"/>
	<path class="st0" d="M287.8,53.8h-8.1v4.9h7.9v2.9h-7.9v6.8h8.1v2.9h-11.2V50.9h11.2V53.8z"/>
	<path class="st0" d="M306.7,52v3.6c-1.8-1.5-3.6-2.2-5.5-2.2c-2.1,0-3.8,0.7-5.3,2.2c-1.4,1.5-2.1,3.3-2.1,5.4
		c0,2.1,0.7,3.9,2.1,5.4c1.4,1.5,3.2,2.2,5.3,2.2c1.1,0,2-0.2,2.7-0.5c0.4-0.2,0.9-0.4,1.3-0.7c0.4-0.3,0.9-0.7,1.4-1.1V70
		c-1.7,1-3.6,1.5-5.5,1.5c-2.9,0-5.4-1-7.4-3c-2-2-3.1-4.5-3.1-7.4c0-2.6,0.9-4.9,2.6-6.9c2.1-2.5,4.8-3.7,8.1-3.7
		C303.3,50.5,305,51,306.7,52z"/>
	<path class="st0" d="M314.2,58.8h8.7v-7.9h3.1v20.2h-3.1v-9.4h-8.7v9.4h-3.1V50.9h3.1V58.8z"/>
	<path class="st0" d="M352.6,60.9c0-2.8,1-5.3,3.1-7.3c2.1-2,4.6-3.1,7.5-3.1c2.9,0,5.4,1,7.4,3.1c2.1,2.1,3.1,4.5,3.1,7.4
		c0,2.9-1,5.4-3.1,7.4c-2.1,2-4.6,3.1-7.6,3.1c-2.6,0-5-0.9-7-2.7C353.8,66.8,352.6,64.2,352.6,60.9z M355.7,61
		c0,2.2,0.8,4.1,2.3,5.5c1.5,1.4,3.2,2.2,5.2,2.2c2.1,0,3.9-0.7,5.4-2.2c1.5-1.5,2.2-3.3,2.2-5.4c0-2.2-0.7-4-2.2-5.4
		c-1.4-1.5-3.2-2.2-5.3-2.2c-2.1,0-3.9,0.7-5.3,2.2C356.4,57.1,355.7,58.8,355.7,61z"/>
	<path class="st0" d="M380.7,50.9v17.4h5.9v2.9h-9V50.9H380.7z"/>
	<path class="st0" d="M387.7,60.9c0-2.8,1-5.3,3.1-7.3c2.1-2,4.6-3.1,7.5-3.1c2.9,0,5.4,1,7.4,3.1c2.1,2.1,3.1,4.5,3.1,7.4
		c0,2.9-1,5.4-3.1,7.4c-2.1,2-4.6,3.1-7.6,3.1c-2.6,0-5-0.9-7-2.7C388.8,66.8,387.7,64.2,387.7,60.9z M390.7,61
		c0,2.2,0.8,4.1,2.3,5.5c1.5,1.4,3.2,2.2,5.2,2.2c2.1,0,3.9-0.7,5.4-2.2c1.5-1.5,2.2-3.3,2.2-5.4c0-2.2-0.7-4-2.2-5.4
		c-1.4-1.5-3.2-2.2-5.3-2.2c-2.1,0-3.9,0.7-5.3,2.2C391.5,57.1,390.7,58.8,390.7,61z"/>
	<path class="st0" d="M423,60.6h8.4v0.7c0,1.5-0.2,2.9-0.5,4c-0.4,1.1-0.9,2.1-1.8,3c-1.9,2.1-4.3,3.2-7.2,3.2c-2.8,0-5.3-1-7.3-3.1
		c-2-2.1-3-4.5-3-7.4c0-2.9,1-5.4,3.1-7.5c2.1-2.1,4.5-3.1,7.5-3.1c1.6,0,3.1,0.3,4.4,1c1.3,0.6,2.6,1.7,3.9,3.1l-2.2,2.1
		c-1.7-2.2-3.7-3.3-6.1-3.3c-2.1,0-3.9,0.7-5.4,2.2c-1.5,1.4-2.2,3.3-2.2,5.4c0,2.3,0.8,4.1,2.4,5.6c1.5,1.4,3.1,2,4.9,2
		c1.5,0,2.9-0.5,4-1.5c1.2-1,1.9-2.2,2-3.7h-5V60.6z"/>
	<path class="st0" d="M438.7,62.4l-6.6-11.5h3.5l4.6,8.1l4.6-8.1h3.5l-6.6,11.5v8.7h-3.1V62.4z"/>
	<path class="st0" d="M460.4,57v14.2h-2.1V57H460.4z"/>
	<path class="st0" d="M463.8,71.1V56l10.3,10.8V57h2.1v15l-10.3-10.8v9.9H463.8z"/>
	<path class="st0" d="M491.8,59v12.1h-2.1V59h-3.3v-2h8.6v2H491.8z"/>
	<path class="st0" d="M499.1,62.5h6.1V57h2.1v14.2h-2.1v-6.6h-6.1v6.6H497V57h2.1V62.5z"/>
	<path class="st0" d="M518.5,59h-5.7v3.4h5.5v2h-5.5v4.7h5.7v2h-7.8V57h7.8V59z"/>
	<path class="st0" d="M533.4,58.8h8.7v-7.9h3.1v20.2h-3.1v-9.4h-8.7v9.4h-3.1V50.9h3.1V58.8z"/>
	<path class="st0" d="M553.1,50.9v12.2c0,1.7,0.3,3,0.9,3.8c0.8,1.2,2,1.7,3.6,1.7c1.5,0,2.7-0.6,3.6-1.7c0.6-0.8,0.9-2,0.9-3.8
		V50.9h3.1v13c0,2.1-0.7,3.9-2,5.3c-1.5,1.5-3.3,2.3-5.5,2.3c-2.2,0-4-0.8-5.5-2.3c-1.3-1.4-2-3.1-2-5.3v-13H553.1z"/>
	<path class="st0" d="M606.4,66.2h-8.7l-2.3,4.9h-3.3l10-21.5l9.7,21.5h-3.3L606.4,66.2z M605.2,63.4l-3-6.9l-3.1,6.9H605.2z"/>
	<path class="st0" d="M639.1,50.9v20.2H636V50.9H639.1z"/>
	<path class="st0" d="M649.5,53.8v17.4h-3.1V53.8h-4.7v-2.9h12.3v2.9H649.5z"/>
	<path class="st0" d="M659.9,50.9v20.2h-3.1V50.9H659.9z"/>
	<path class="st0" d="M675.9,53.8h-8.1v4.9h7.9v2.9h-7.9v6.8h8.1v2.9h-11.2V50.9h11.2V53.8z"/>
	<path class="st0" d="M691.4,53.9l-2.5,1.5c-0.5-0.8-0.9-1.3-1.3-1.6c-0.4-0.3-1-0.4-1.7-0.4c-0.8,0-1.6,0.2-2.1,0.7
		c-0.6,0.5-0.8,1.1-0.8,1.8c0,1,0.7,1.8,2.2,2.4l2,0.8c1.6,0.7,2.8,1.5,3.6,2.4c0.8,1,1.1,2.1,1.1,3.5c0,1.9-0.6,3.4-1.9,4.6
		c-1.2,1.2-2.8,1.8-4.7,1.8c-1.8,0-3.2-0.5-4.3-1.6c-1.1-1-1.8-2.5-2.1-4.4l3.1-0.7c0.1,1.2,0.4,2,0.7,2.5c0.6,0.9,1.5,1.3,2.8,1.3
		c1,0,1.7-0.3,2.4-1c0.6-0.6,0.9-1.4,0.9-2.4c0-0.4-0.1-0.8-0.2-1.1c-0.1-0.3-0.3-0.6-0.5-0.9c-0.2-0.3-0.5-0.5-0.9-0.8
		c-0.4-0.2-0.8-0.5-1.3-0.7l-2-0.8c-2.8-1.2-4.2-2.9-4.2-5.1c0-1.5,0.6-2.8,1.7-3.8c1.2-1,2.6-1.5,4.3-1.5
		C688.2,50.5,690.1,51.7,691.4,53.9z"/>
	<polygon class="st0" points="629.2,50.9 629.2,66.5 617.8,50.9 614.4,50.9 614.4,71.1 617.5,71.1 617.5,55.6 628.8,71.1 
		632.2,71.1 632.2,50.9 	"/>
	<polygon class="st0" points="345.6,50.9 345.6,66.5 334.2,50.9 330.8,50.9 330.8,71.1 333.9,71.1 333.9,55.6 345.2,71.1 
		348.6,71.1 348.6,50.9 	"/>
	<path class="st0" d="M297.5,34h-8.7l-2.3,4.9h-3.3l10-21.5l9.7,21.5h-3.3L297.5,34z M296.3,31.2l-3-6.9l-3.1,6.9H296.3z"/>
	<path class="st0" d="M312.4,30.3l6.3,8.6h-3.7l-5.8-8.3h-0.6v8.3h-3.1V18.7h3.6c2.7,0,4.6,0.5,5.8,1.5c1.3,1.1,2,2.6,2,4.4
		c0,1.4-0.4,2.7-1.2,3.7C314.8,29.4,313.7,30,312.4,30.3z M308.6,28h1c2.9,0,4.3-1.1,4.3-3.3c0-2.1-1.4-3.1-4.2-3.1h-1.1V28z"/>
	<path class="st0" d="M324.8,30.2l-6.6-11.5h3.5l4.6,8.1l4.6-8.1h3.5l-6.6,11.5v8.7h-3.1V30.2z"/>
	<path class="st0" d="M339.9,18.7v17.4h5.9v2.9h-9V18.7H339.9z"/>
	<path class="st0" d="M361.8,34h-8.7l-2.3,4.9h-3.3l10-21.5l9.7,21.5h-3.3L361.8,34z M360.5,31.2l-3-6.9l-3.1,6.9H360.5z"/>
	<path class="st0" d="M392.4,38.9V18.7h4.2c2,0,3.6,0.2,4.8,0.6c1.3,0.4,2.4,1.1,3.4,2c2.1,1.9,3.1,4.4,3.1,7.5
		c0,3.1-1.1,5.6-3.3,7.5c-1.1,1-2.2,1.6-3.4,2c-1.1,0.4-2.7,0.6-4.8,0.6H392.4z M395.5,36.1h1.4c1.4,0,2.5-0.1,3.4-0.4
		c0.9-0.3,1.7-0.8,2.5-1.5c1.5-1.4,2.3-3.2,2.3-5.4c0-2.2-0.7-4-2.2-5.4c-1.3-1.2-3.3-1.8-5.9-1.8h-1.4V36.1z"/>
	<path class="st0" d="M423.2,18.7v20.2h-3.1V18.7H423.2z"/>
	<path class="st0" d="M462.1,21.7l-2.5,1.5c-0.5-0.8-0.9-1.3-1.3-1.6c-0.4-0.3-1-0.4-1.7-0.4c-0.8,0-1.6,0.2-2.1,0.7
		c-0.6,0.5-0.8,1.1-0.8,1.8c0,1,0.7,1.8,2.2,2.4l2,0.8c1.6,0.7,2.8,1.5,3.6,2.4c0.8,1,1.1,2.1,1.1,3.5c0,1.9-0.6,3.4-1.9,4.6
		c-1.2,1.2-2.8,1.8-4.7,1.8c-1.8,0-3.2-0.5-4.3-1.6c-1.1-1-1.8-2.5-2.1-4.4l3.1-0.7c0.1,1.2,0.4,2,0.7,2.5c0.6,0.9,1.5,1.3,2.8,1.3
		c1,0,1.7-0.3,2.4-1c0.6-0.6,0.9-1.4,0.9-2.4c0-0.4-0.1-0.8-0.2-1.1c-0.1-0.3-0.3-0.6-0.5-0.9c-0.2-0.3-0.5-0.5-0.9-0.8
		c-0.4-0.2-0.8-0.5-1.3-0.7l-2-0.8c-2.8-1.2-4.2-2.9-4.2-5.1c0-1.5,0.6-2.8,1.7-3.8c1.2-1,2.6-1.5,4.3-1.5
		C459,18.3,460.8,19.5,462.1,21.7z"/>
	<path class="st0" d="M472.3,21.6v17.4h-3.1V21.6h-4.7v-2.9H477v2.9H472.3z"/>
	<path class="st0" d="M482.7,18.7v20.2h-3.1V18.7H482.7z"/>
	<path class="st0" d="M493.2,21.6v17.4h-3.1V21.6h-4.7v-2.9h12.3v2.9H493.2z"/>
	<path class="st0" d="M503.6,18.7v12.2c0,1.7,0.3,3,0.9,3.8c0.8,1.2,2,1.7,3.6,1.7c1.5,0,2.7-0.6,3.6-1.7c0.6-0.8,0.9-2,0.9-3.8
		V18.7h3.1v13c0,2.1-0.7,3.9-2,5.3c-1.5,1.5-3.3,2.3-5.5,2.3c-2.2,0-4-0.8-5.5-2.3c-1.3-1.4-2-3.1-2-5.3v-13H503.6z"/>
	<path class="st0" d="M525.9,21.6v17.4h-3.1V21.6h-4.7v-2.9h12.3v2.9H525.9z"/>
	<path class="st0" d="M544.4,21.6h-8.1v4.9h7.9v2.9h-7.9v6.8h8.1v2.9h-11.2V18.7h11.2V21.6z"/>
	<path class="st0" d="M563.1,26.8h-4.9v3.4h4.8v2h-4.8v6.7H556V24.8h7.1V26.8z"/>
	<path class="st0" d="M564.9,31.8c0-2,0.7-3.7,2.2-5.1c1.5-1.4,3.2-2.1,5.2-2.1c2,0,3.7,0.7,5.2,2.2c1.4,1.4,2.2,3.2,2.2,5.2
		c0,2-0.7,3.8-2.2,5.2c-1.5,1.4-3.2,2.1-5.3,2.1c-1.8,0-3.5-0.6-4.9-1.9C565.7,35.9,564.9,34.1,564.9,31.8z M567,31.8
		c0,1.6,0.5,2.9,1.6,3.9c1,1,2.3,1.5,3.6,1.5c1.5,0,2.7-0.5,3.8-1.5c1-1,1.5-2.3,1.5-3.8c0-1.5-0.5-2.8-1.5-3.8
		c-1-1-2.2-1.5-3.7-1.5c-1.5,0-2.7,0.5-3.7,1.5C567.5,29.1,567,30.3,567,31.8z"/>
	<path class="st0" d="M587.1,32.9l4.4,6h-2.6l-4-5.8h-0.4v5.8h-2.1V24.8h2.5c1.9,0,3.2,0.4,4.1,1.1c0.9,0.8,1.4,1.8,1.4,3.1
		c0,1-0.3,1.9-0.9,2.6C588.8,32.3,588.1,32.7,587.1,32.9z M584.5,31.3h0.7c2,0,3-0.8,3-2.3c0-1.4-1-2.2-3-2.2h-0.8V31.3z"/>
	<polygon class="st0" points="384.5,18.7 384.5,34.3 373.2,18.7 369.8,18.7 369.8,38.9 372.8,38.9 372.8,23.4 384.1,38.9 
		387.6,38.9 387.6,18.7 	"/>
	<polygon class="st0" points="442.8,18.7 442.8,34.3 431.5,18.7 428.1,18.7 428.1,38.9 431.1,38.9 431.1,23.4 442.5,38.9 
		445.9,38.9 445.9,18.7 	"/>
	<polygon class="st0" points="277.9,18.7 271.2,27.3 264.5,18.7 261,18.7 261,38.9 264.1,38.9 264.1,23.2 271.2,32.3 278.3,23.2 
		278.3,38.9 281.3,38.9 281.3,18.7 	"/>
	<polygon class="st0" points="586.4,50.9 579.7,59.5 573,50.9 569.5,50.9 569.5,71.1 572.5,71.1 572.5,55.4 579.7,64.5 586.8,55.4 
		586.8,71.1 589.8,71.1 589.8,50.9 	"/>
</g>
<g>
	<path class="st0" d="M96.6,0v72H85.7V0H96.6z"/>
	<path class="st0" d="M137.3,10.2V72h-10.9V10.2h-16.6V0h43.9v10.2H137.3z"/>
	<path class="st0" d="M178,28.2h31.1V0h10.9v72h-10.9V38.4H178V72h-10.9V0H178V28.2z"/>
	<polygon class="st0" points="60.1,0 36.2,30.6 12.3,0 0,0 0,72 10.9,72 10.9,15.8 36.2,48.3 61.6,15.8 61.6,72 72.4,72 72.4,0 	"/>
</g>
</svg>
